<?xml version="1.0"?>
<svg xmlns="http://www.w3.org/2000/svg" height="512px" viewBox="0 0 482.27562 482.27562" width="512px"><path d="m452.015625 207.664062c-3.128906-3.121093-8.195313-3.113281-11.316406.015626-3.117188 3.128906-3.113281 8.195312.019531 11.316406l14.191406 14.140625h-45.617187c-4.417969 0-8 3.582031-8 8s3.582031 8 8 8h45.617187l-14.1875 14.136719c-3.128906 3.121093-3.136718 8.1875-.015625 11.320312 3.121094 3.128906 8.1875 3.136719 11.316407.015625l27.898437-27.808594c1.507813-1.5 2.355469-3.539062 2.355469-5.664062 0-2.128907-.847656-4.167969-2.355469-5.667969zm0 0" fill="#FFFFFF"/><path d="m27.359375 249.136719h45.617187c4.417969 0 8-3.582031 8-8s-3.582031-8-8-8h-45.617187l14.1875-14.140625c3.132813-3.121094 3.140625-8.183594.019531-11.316406-3.117187-3.128907-8.183594-3.136719-11.3125-.015626l-27.902344 27.804688c-1.503906 1.5-2.351562 3.539062-2.351562 5.667969 0 2.125.847656 4.164062 2.351562 5.664062l27.902344 27.808594c3.128906 3.117187 8.195313 3.109375 11.3125-.019531 3.121094-3.128906 3.113282-8.195313-.019531-11.316406zm0 0" fill="#FFFFFF"/><path d="m263.273438 440.722656-14.136719 14.1875v-45.617187c0-4.417969-3.582031-8-8-8s-8 3.582031-8 8v45.617187l-14.140625-14.1875c-3.121094-3.128906-8.1875-3.136718-11.316406-.015625-3.128907 3.121094-3.136719 8.1875-.015626 11.316407l27.804688 27.898437c1.5 1.507813 3.539062 2.355469 5.667969 2.355469 2.125 0 4.164062-.847656 5.664062-2.355469l27.808594-27.898437c3.121094-3.128907 3.113281-8.195313-.015625-11.316407-3.132812-3.121093-8.199219-3.113281-11.320312.015625zm0 0" fill="#FFFFFF"/><path d="m241.136719 80.976562c4.417969 0 8-3.582031 8-8v-45.617187l14.136719 14.1875c3.121093 3.132813 8.1875 3.140625 11.316406.019531 3.128906-3.117187 3.136718-8.183594.019531-11.3125l-27.808594-27.902344c-1.5-1.503906-3.539062-2.351562-5.664062-2.351562-2.128907 0-4.167969.847656-5.667969 2.351562l-27.804688 27.902344c-3.121093 3.128906-3.113281 8.195313.015626 11.3125 3.132812 3.121094 8.195312 3.113282 11.316406-.019531l14.140625-14.1875v45.617187c0 4.417969 3.582031 8 8 8zm0 0" fill="#FFFFFF"/><path d="m405.90625 358.59375c-4.417969.007812-7.992188 3.597656-7.984375 8.015625l.03125 20.03125-32.253906-32.253906c-3.136719-3.066407-8.152344-3.039063-11.25.0625-3.101563 3.097656-3.128907 8.113281-.0625 11.25l32.253906 32.363281-20.03125.074219h-.015625c-2.105469-.027344-4.136719.792969-5.640625 2.273437-1.5 1.476563-2.351563 3.496094-2.359375 5.605469-.007812 4.421875 3.566406 8.015625 7.988281 8.03125l39.390625.089844h.015625c4.4375-.070313 8-3.6875 8-8.125l-.066406-39.410157c.003906-2.128906-.839844-4.167968-2.34375-5.671874-1.503906-1.5-3.546875-2.339844-5.671875-2.335938zm0 0" fill="#FFFFFF"/><path d="m122.230469 130.230469c3.234375 0 6.152343-1.949219 7.390625-4.941407 1.238281-2.988281.550781-6.429687-1.734375-8.714843l-32.257813-32.367188 20.03125-.070312h.015625c2.109375.023437 4.136719-.796875 5.640625-2.273438 1.5-1.480469 2.351563-3.5 2.359375-5.605469.007813-4.425781-3.566406-8.019531-7.988281-8.035156l-39.390625-.085937h-.011719c-4.441406.066406-8 3.683593-8 8.125l.066406 39.636719c-.011718 4.464843 3.539063 8.121093 8 8.238281h.015626c4.460937-.117188 8.007812-3.78125 7.984374-8.246094l-.035156-20.144531 32.257813 32.199218c1.503906 1.484376 3.539062 2.308594 5.65625 2.285157zm0 0" fill="#FFFFFF"/><path d="m116.574219 354.386719-32.257813 32.253906.035156-20.261719c.023438-4.464844-3.523437-8.128906-7.988281-8.242187h-.015625c-4.457031.105469-8.007812 3.757812-8 8.214843l-.066406 39.507813c-.003906 2.164063.835938 4.246094 2.34375 5.800781 1.488281 1.535156 3.519531 2.425782 5.660156 2.476563h.011719l39.390625-.140625c2.855469.027344 5.503906-1.480469 6.9375-3.945313 1.4375-2.46875 1.433594-5.515625-.003906-7.980469-1.4375-2.46875-4.089844-3.96875-6.945313-3.933593h-.015625l-20.03125-.074219 32.257813-32.308594c3.085937-3.132812 3.074219-8.167968-.03125-11.285156-3.101563-3.117188-8.136719-3.15625-11.28125-.082031zm0 0" fill="#FFFFFF"/><path d="m405.90625 124.136719h.015625c4.457031-.109375 8.011719-3.761719 8-8.21875l.066406-39.503907c.003907-2.144531-.835937-4.203124-2.34375-5.730468-1.5-1.511719-3.539062-2.367188-5.671875-2.371094l-39.390625.050781c-2.835937-.027343-5.472656 1.46875-6.898437 3.921875-1.425782 2.457032-1.425782 5.488282.003906 7.9375 1.433594 2.453125 4.070312 3.945313 6.90625 3.914063h.015625l20.03125.070312-32.253906 32.3125c-3.136719 3.121094-3.148438 8.199219-.027344 11.335938 3.125 3.136719 8.203125 3.148437 11.339844.023437l32.253906-32.253906-.03125 20.265625c-.027344 4.464844 3.523437 8.128906 7.984375 8.246094zm0 0" fill="#FFFFFF"/><path d="m381.453125 235.828125c2.363281-1.410156 3.84375-3.925781 3.933594-6.679687.070312-2.730469-1.265625-5.3125-3.539063-6.832032l-32.976562-21.914062 33.007812-21.914063c2.277344-1.515625 3.625-4.089843 3.570313-6.824219-.054688-2.738281-1.5-5.253906-3.839844-6.675781l-84.421875-51.253906c-2.386719-1.449219-5.355469-1.550781-7.835938-.261719l-48.214843 25.027344-48.21875-25.023438c-2.480469-1.285156-5.449219-1.1875-7.835938.261719l-84.421875 51.246094c-2.347656 1.421875-3.796875 3.949219-3.847656 6.691406-.050781 2.742188 1.304688 5.316407 3.59375 6.828125l33.226562 21.898438-33.226562 21.898437c-2.289062 1.511719-3.644531 4.089844-3.59375 6.832031.046875 2.742188 1.5 5.269532 3.839844 6.695313l39.484375 23.882813v48.109374c.003906 2.855469 1.53125 5.492188 4.003906 6.921876l92.976563 53.871093c2.476562 1.4375 5.535156 1.441407 8.015624.007813l93.148438-53.875c2.4375-1.445313 3.910156-4.089844 3.855469-6.925782v-48.308593zm-50.53125 11.945313-38.175781 23.261718-34.875-18.320312 76.214844-42.9375 28.4375 18.886718zm-89.78125-91.058594 77.027344 43.664062-77.027344 43.394532-76.753906-43.394532zm51.59375-26.964844 69.8125 42.375-28.445313 18.894531-76.191406-43.195312zm-103.191406 0 34.851562 18.085938-75.914062 43.1875-28.707031-18.921876zm-41.046875 80.023438 75.933594 42.929687-34.90625 18.332031-38.199219-23.277344-31.535157-19.070312zm7.640625 59.675781 28.914062 17.609375c2.40625 1.464844 5.40625 1.558594 7.902344.25l40.183594-21.109375v81.609375l-77-44.597656zm93 78.386719v-81.636719l40.179687 21.109375c1.148438.601562 2.425782.917968 3.722656.917968 1.421876 0 2.8125-.40625 4.015626-1.167968l29.082031-17.8125v33.957031zm0 0" fill="#FFFFFF"/></svg>
