<?xml version="1.0" encoding="UTF-8"?>
<svg width="875px" height="359px" viewBox="0 0 875 359" version="1.1" xmlns="http://www.w3.org/2000/svg" xmlns:xlink="http://www.w3.org/1999/xlink">
    <!-- Generator: Sketch 49.1 (51147) - http://www.bohemiancoding.com/sketch -->
    <title>ic_texted_black</title>
    <desc>Created with Sketch.</desc>
    <defs></defs>
    <g id="Page-1" stroke="none" stroke-width="1" fill="none" fill-rule="evenodd">
        <g id="ic_texted_black" transform="translate(-25.000000, 0.000000)" fill="#FFFFFF" fill-rule="nonzero">
            <g id="ic_insuit_black_alternative">
                <path d="M142.5,160 C116.266474,160 95,138.733526 95,112.5 C95,86.2664744 116.266474,65 142.5,65 C168.733526,65 190,86.2664744 190,112.5 C190,138.733526 168.733526,160 142.5,160 Z M142,137 C155.807119,137 167,125.807119 167,112 C167,98.1928813 155.807119,87 142,87 C128.192881,87 117,98.1928813 117,112 C117,125.807119 128.192881,137 142,137 Z" id="Oval"></path>
                <path d="M258.5,117 C258.5,123.351275 253.351275,128.5 247,128.5 C240.648725,128.5 235.5,123.351275 235.5,117 C235.5,65.3613759 193.638624,23.5 142,23.5 C90.3613759,23.5 48.5,65.3613759 48.5,117 C48.5,123.351275 43.3512746,128.5 37,128.5 C30.6487254,128.5 25.5,123.351275 25.5,117 C25.5,52.6588266 77.6588266,0.5 142,0.5 C206.341173,0.5 258.5,52.6588266 258.5,117 Z" id="Oval"></path>
                <path d="M75.9327629,258.418252 L217.876929,297.97021 L178.502973,155.849849 L148.396105,214.861052 C145.423582,220.687371 140.684355,225.424188 134.856526,228.393749 L75.9327629,258.418252 Z M128.799225,204.862939 L167.083331,129.823876 C170.848198,122.444518 179.882378,119.514395 187.261736,123.279262 C191.006651,125.189877 193.777868,128.584395 194.900331,132.635927 L242.385364,304.033234 C244.597179,312.016781 239.918264,320.281754 231.934717,322.493569 C229.306896,323.221598 226.530328,323.219538 223.90359,322.487612 L52.719516,274.788115 C44.7392585,272.56446 40.0726098,264.292555 42.2962645,256.312297 C43.4233705,252.267337 46.1943471,248.880005 49.9356991,246.973606 L124.868379,208.791786 C126.56033,207.929656 127.936234,206.554451 128.799225,204.862939 Z" id="Rectangle-2" transform="translate(142.337830, 222.337830) rotate(45.000000) translate(-142.337830, -222.337830) "></path>
            </g>
            <path d="M343.608,154.728 C348.072022,154.728 351.874651,155.637324 355.016,157.456 C358.157349,159.274676 359.728,161.671985 359.728,164.648 L359.728,262.36 C359.728,264.840012 358.157349,267.154656 355.016,269.304 C351.874651,271.453344 348.072022,272.528 343.608,272.528 C338.978644,272.528 335.176015,271.453344 332.2,269.304 C329.223985,267.154656 327.736,264.840012 327.736,262.36 L327.736,164.648 C327.736,161.671985 329.223985,159.274676 332.2,157.456 C335.176015,155.637324 338.978644,154.728 343.608,154.728 Z M343.608,97.192 C348.402691,97.192 352.49465,98.721318 355.884,101.78 C359.27335,104.838682 360.968,108.517312 360.968,112.816 C360.968,116.949354 359.27335,120.586651 355.884,123.728 C352.49465,126.869349 348.402691,128.44 343.608,128.44 C338.647975,128.44 334.47335,126.869349 331.084,123.728 C327.69465,120.586651 326,116.949354 326,112.816 C326,108.517312 327.69465,104.838682 331.084,101.78 C334.47335,98.721318 338.647975,97.192 343.608,97.192 Z M416.52,262.36 C416.52,264.840012 414.908016,267.154656 411.684,269.304 C408.459984,271.453344 404.698688,272.528 400.4,272.528 C395.605309,272.528 391.761348,271.453344 388.868,269.304 C385.974652,267.154656 384.528,264.840012 384.528,262.36 L384.528,164.648 C384.528,161.671985 385.974652,159.274676 388.868,157.456 C391.761348,155.637324 395.605309,154.728 400.4,154.728 C404.202686,154.728 407.509319,155.637324 410.32,157.456 C413.130681,159.274676 414.536,161.671985 414.536,164.648 L414.536,172.088 C416.850678,167.293309 420.901304,162.953353 426.688,159.068 C432.474696,155.182647 439.501292,153.24 447.768,153.24 C453.389361,153.24 458.803974,154.562653 464.012,157.208 C469.220026,159.853347 473.766647,163.490644 477.652,168.12 C481.537353,172.749356 484.637322,178.081303 486.952,184.116 C489.266678,190.150697 490.424,196.639965 490.424,203.584 L490.424,262.36 C490.424,265.666683 488.72935,268.187991 485.34,269.924 C481.95065,271.660009 478.27202,272.528 474.304,272.528 C470.501314,272.528 466.90535,271.660009 463.516,269.924 C460.12665,268.187991 458.432,265.666683 458.432,262.36 L458.432,203.584 C458.432,200.773319 457.853339,198.045347 456.696,195.4 C455.538661,192.754653 454.009343,190.357344 452.108,188.208 C450.206657,186.058656 447.933347,184.364006 445.288,183.124 C442.642653,181.883994 439.832015,181.264 436.856,181.264 C431.730641,181.264 427.060021,183.24798 422.844,187.216 C418.627979,191.18402 416.52,196.639965 416.52,203.584 L416.52,262.36 Z M564.08,245.744 C571.520037,245.744 578.009306,244.008017 583.548,240.536 C589.086694,237.063983 591.856,231.608037 591.856,224.168 C591.856,218.050636 589.87202,213.049353 585.904,209.164 C581.93598,205.278647 577.017363,201.806682 571.148,198.748 C565.278637,195.689318 558.913368,192.754681 552.052,189.944 C545.190632,187.133319 538.825363,183.620021 532.956,179.404 C527.086637,175.187979 522.16802,169.938698 518.2,163.656 C514.23198,157.373302 512.248,149.354715 512.248,139.6 C512.248,130.341287 514.066648,122.570698 517.704,116.288 C521.341352,110.005302 526.011971,104.921353 531.716,101.036 C537.420029,97.1506472 543.867964,94.3400087 551.06,92.604 C558.252036,90.8679913 565.402631,90 572.512,90 C576.149352,90 580.65464,90.2479975 586.028,90.744 C591.40136,91.2400025 596.567975,92.2319926 601.528,93.72 C606.488025,95.2080074 610.745316,97.2333205 614.3,99.796 C617.854684,102.358679 619.632,105.706646 619.632,109.84 C619.632,111.328007 619.384002,113.022657 618.888,114.924 C618.391998,116.825343 617.606672,118.685324 616.532,120.504 C615.457328,122.322676 614.093342,123.851994 612.44,125.092 C610.786658,126.332006 608.885344,126.952 606.736,126.952 C604.75199,126.952 602.850676,126.456005 601.032,125.464 C599.213324,124.471995 597.064012,123.397339 594.584,122.24 C592.103988,121.082661 589.086684,120.008005 585.532,119.016 C581.977316,118.023995 577.637359,117.528 572.512,117.528 C563.583955,117.528 556.681358,119.22265 551.804,122.612 C546.926642,126.00135 544.488,130.67197 544.488,136.624 C544.488,141.749359 546.47198,145.923984 550.44,149.148 C554.40802,152.372016 559.326637,155.306653 565.196,157.952 C571.065363,160.597347 577.430632,163.366652 584.292,166.26 C591.153368,169.153348 597.518637,172.873311 603.388,177.42 C609.257363,181.966689 614.17598,187.670632 618.144,194.532 C622.11202,201.393368 624.096,210.19728 624.096,220.944 C624.096,229.872045 622.608015,237.683967 619.632,244.38 C616.655985,251.076033 612.564026,256.655978 607.356,261.12 C602.147974,265.584022 595.948036,268.973322 588.756,271.288 C581.563964,273.602678 573.669376,274.76 565.072,274.76 C556.970626,274.76 549.406702,273.850676 542.38,272.032 C535.353298,270.213324 529.277359,267.816015 524.152,264.84 C519.026641,261.863985 515.017348,258.557352 512.124,254.92 C509.230652,251.282648 507.784,247.645352 507.784,244.008 C507.784,242.354658 508.155996,240.494677 508.9,238.428 C509.644004,236.361323 510.677327,234.460009 512,232.724 C513.322673,230.987991 514.810658,229.541339 516.464,228.384 C518.117342,227.226661 519.93599,226.648 521.92,226.648 C524.400012,226.648 526.838655,227.63999 529.236,229.624 C531.633345,231.60801 534.361318,233.798655 537.42,236.196 C540.478682,238.593345 544.115979,240.78399 548.332,242.768 C552.548021,244.75201 557.797302,245.744 564.08,245.744 Z M696.264,274.76 C688.823963,274.76 681.838699,273.396014 675.308,270.668 C668.777301,267.939986 663.073358,264.261356 658.196,259.632 C653.318642,255.002644 649.474681,249.629364 646.664,243.512 C643.853319,237.394636 642.448,231.029366 642.448,224.416 L642.448,164.896 C642.448,162.415988 644.018651,160.101344 647.16,157.952 C650.301349,155.802656 654.103978,154.728 658.568,154.728 C662.866688,154.728 666.586651,155.802656 669.728,157.952 C672.869349,160.101344 674.44,162.415988 674.44,164.896 L674.44,224.416 C674.44,227.226681 675.018661,229.954653 676.176,232.6 C677.333339,235.245347 678.90399,237.642656 680.888,239.792 C682.87201,241.941344 685.186653,243.635994 687.832,244.876 C690.477347,246.116006 693.287985,246.736 696.264,246.736 C699.240015,246.736 702.050653,246.116006 704.696,244.876 C707.341347,243.635994 709.65599,241.982677 711.64,239.916 C713.62401,237.849323 715.153328,235.452014 716.228,232.724 C717.302672,229.995986 717.84,227.226681 717.84,224.416 L717.84,164.648 C717.84,162.002653 719.451984,159.68801 722.676,157.704 C725.900016,155.71999 729.661312,154.728 733.96,154.728 C738.754691,154.728 742.598652,155.71999 745.492,157.704 C748.385348,159.68801 749.832,162.002653 749.832,164.648 L749.832,224.416 C749.832,231.194701 748.426681,237.601303 745.616,243.636 C742.805319,249.670697 738.961358,255.002644 734.084,259.632 C729.206642,264.261356 723.502699,267.939986 716.972,270.668 C710.441301,273.396014 703.538703,274.76 696.264,274.76 Z M789.512,154.728 C793.976022,154.728 797.778651,155.637324 800.92,157.456 C804.061349,159.274676 805.632,161.671985 805.632,164.648 L805.632,262.36 C805.632,264.840012 804.061349,267.154656 800.92,269.304 C797.778651,271.453344 793.976022,272.528 789.512,272.528 C784.882644,272.528 781.080015,271.453344 778.104,269.304 C775.127985,267.154656 773.64,264.840012 773.64,262.36 L773.64,164.648 C773.64,161.671985 775.127985,159.274676 778.104,157.456 C781.080015,155.637324 784.882644,154.728 789.512,154.728 Z M789.512,97.192 C794.306691,97.192 798.39865,98.721318 801.788,101.78 C805.17735,104.838682 806.872,108.517312 806.872,112.816 C806.872,116.949354 805.17735,120.586651 801.788,123.728 C798.39865,126.869349 794.306691,128.44 789.512,128.44 C784.551975,128.44 780.37735,126.869349 776.988,123.728 C773.59865,120.586651 771.904,116.949354 771.904,112.816 C771.904,108.517312 773.59865,104.838682 776.988,101.78 C780.37735,98.721318 784.551975,97.192 789.512,97.192 Z M862.176,232.352 C862.176,237.146691 863.16799,240.53599 865.152,242.52 C867.13601,244.50401 870.773307,245.496 876.064,245.496 L885.736,245.496 C890.365356,245.496 893.795989,246.901319 896.028,249.712 C898.260011,252.522681 899.376,255.581317 899.376,258.888 C899.376,262.360017 898.260011,265.501319 896.028,268.312 C893.795989,271.122681 890.365356,272.528 885.736,272.528 L876.064,272.528 C861.018591,272.528 849.610706,269.345365 841.84,262.98 C834.069294,256.614635 830.184,246.405404 830.184,232.352 L830.184,112.072 C830.184,109.095985 831.87865,106.698676 835.268,104.88 C838.65735,103.061324 842.253314,102.152 846.056,102.152 C850.189354,102.152 853.909317,103.061324 857.216,104.88 C860.522683,106.698676 862.176,109.095985 862.176,112.072 L862.176,154.728 L891.44,154.728 C894.085347,154.728 896.11066,155.967988 897.516,158.448 C898.92134,160.928012 899.624,163.573319 899.624,166.384 C899.624,169.360015 898.92134,172.046655 897.516,174.444 C896.11066,176.841345 894.085347,178.04 891.44,178.04 L862.176,178.04 L862.176,232.352 Z" id="inSuit"></path>
        </g>
    </g>
</svg>