<?xml version="1.0" encoding="UTF-8"?>
<svg width="234px" height="359px" viewBox="0 0 234 359" version="1.1" xmlns="http://www.w3.org/2000/svg" xmlns:xlink="http://www.w3.org/1999/xlink">
    <!-- Generator: Sketch 49.3 (51167) - http://www.bohemiancoding.com/sketch -->
    <title>Group</title>
    <desc>Created with Sketch.</desc>
    <defs></defs>
    <g id="Page-1" stroke="none" stroke-width="1" fill="none" fill-rule="evenodd">
        <g id="play/ic_launcher_APP" transform="translate(-139.000000, -72.000000)" fill="#FFFFFF" fill-rule="nonzero">
            <g id="Group" transform="translate(114.000000, 72.000000)">
                <path d="M142.5,160 C116.266474,160 95,138.733526 95,112.5 C95,86.2664744 116.266474,65 142.5,65 C168.733526,65 190,86.2664744 190,112.5 C190,138.733526 168.733526,160 142.5,160 Z M142,137 C155.807119,137 167,125.807119 167,112 C167,98.1928813 155.807119,87 142,87 C128.192881,87 117,98.1928813 117,112 C117,125.807119 128.192881,137 142,137 Z" id="Oval"></path>
                <path d="M258.5,117 C258.5,123.351275 253.351275,128.5 247,128.5 C240.648725,128.5 235.5,123.351275 235.5,117 C235.5,65.3613759 193.638624,23.5 142,23.5 C90.3613759,23.5 48.5,65.3613759 48.5,117 C48.5,123.351275 43.3512746,128.5 37,128.5 C30.6487254,128.5 25.5,123.351275 25.5,117 C25.5,52.6588266 77.6588266,0.5 142,0.5 C206.341173,0.5 258.5,52.6588266 258.5,117 Z" id="Oval"></path>
                <path d="M75.9327628,258.418252 L217.876929,297.97021 L178.502973,155.849849 L148.396105,214.861052 C145.423582,220.687371 140.684355,225.424188 134.856526,228.393749 L75.9327628,258.418252 Z M128.799225,204.862939 L167.083331,129.823876 C170.848198,122.444518 179.882378,119.514395 187.261736,123.279262 C191.006651,125.189877 193.777868,128.584395 194.900331,132.635927 L242.385364,304.033234 C244.597179,312.016781 239.918264,320.281754 231.934717,322.493569 C229.306896,323.221598 226.530328,323.219538 223.90359,322.487612 L52.7195159,274.788115 C44.7392584,272.56446 40.0726097,264.292555 42.2962644,256.312297 C43.4233704,252.267337 46.194347,248.880005 49.935699,246.973606 L124.868379,208.791786 C126.56033,207.929656 127.936234,206.554451 128.799225,204.862939 Z" id="Rectangle-2" transform="translate(142.337830, 222.337830) rotate(45.000000) translate(-142.337830, -222.337830) "></path>
            </g>
        </g>
    </g>
</svg>